<svg xmlns="http://www.w3.org/2000/svg" width="55" height="55" fill="none"><path fill="#FFC9D0" d="M47.4 25.547v19.115a1.912 1.912 0 0 1-1.911 1.911H9.17a1.912 1.912 0 0 1-1.911-1.911V27.459"/><path stroke="#FE4A64" stroke-width="1.5" d="M47.4 25.547v19.115a1.912 1.912 0 0 1-1.911 1.911H9.17a1.912 1.912 0 0 1-1.911-1.911V27.459"/><path fill="#FFC9D0" d="M31.326 31.934 49.5 27.919V16.275c0-.515-.202-1.008-.56-1.372a1.9 1.9 0 0 0-1.353-.569H7.413a1.9 1.9 0 0 0-1.353.569c-.358.364-.56.857-.56 1.372v11.643l18.174 4.017"/><path stroke="#FE4A64" stroke-width="1.5" d="M31.326 31.934 49.5 27.919V16.275c0-.515-.202-1.008-.56-1.372a1.9 1.9 0 0 0-1.353-.569H7.413a1.9 1.9 0 0 0-1.353.569c-.358.364-.56.857-.56 1.372v11.643l18.174 4.017"/><path fill="#FDE3E7" stroke="#FE4A64" stroke-linejoin="round" stroke-width="1.5" d="M33.66 29.37H23.1v5.735h10.56V29.37Z"/><path stroke="#FE4A64" stroke-width="1.5" d="M20 14.69v-2.867A3.823 3.823 0 0 1 23.823 8h7.531a3.823 3.823 0 0 1 3.823 3.823v2.867"/></svg>