<svg xmlns="http://www.w3.org/2000/svg" width="55" height="55" fill="none"><path fill="#FFC9D0" d="M16.957 49.5a11.468 11.468 0 0 1-8.104-19.573L29.92 8.862A11.478 11.478 0 0 1 46.15 25.093L25.085 46.229a11.422 11.422 0 0 1-8.128 3.27Z"/><path fill="#FFE5E9" d="M20.062 19.17 8.854 30.021l-2.938 5.094v6.019l2.938 5.094 6.019 3.152 6.255-.593 3.958-2.559L35.89 35.401 20.062 19.169Z"/><path stroke="#FE4A64" stroke-width="1.5" d="m19.587 18.695 16.302 16.706"/><path stroke="#FE4A64" stroke-linecap="round" stroke-linejoin="round" stroke-width="1.5" d="m28.876 17.558 5.782-6.16"/><path stroke="#FE4A64" stroke-width="1.5" d="M16.957 49.5a11.468 11.468 0 0 1-8.104-19.573L29.92 8.862A11.478 11.478 0 0 1 46.15 25.093L25.085 46.229a11.422 11.422 0 0 1-8.128 3.27Z"/></svg>