<svg xmlns="http://www.w3.org/2000/svg" width="55" height="55" fill="none"><path fill="#FFC9D0" fill-rule="evenodd" d="M13.835 20.277V9.44c0-.4.324-.724.724-.724h5.427c.4 0 .724.324.724.724v4.212" clip-rule="evenodd"/><path stroke="#FF4A64" stroke-width="1.5" d="M13.835 20.277V9.44c0-.4.324-.724.724-.724h5.427c.4 0 .724.324.724.724v4.212"/><path fill="#FFC9D0" fill-rule="evenodd" stroke="#FF4A64" stroke-width="1.5" d="M7.673 28.272a.724.724 0 0 1-.51-1.234L26.988 7.212a.724.724 0 0 1 1.024 0l19.826 19.826a.724.724 0 0 1-.51 1.234h-4.342v19.771c0 .4-.324.724-.724.724H12.739c-.757 0-.724-.67-.724-.67V28.271H7.673Z" clip-rule="evenodd"/><path fill="#FFF1F2" fill-rule="evenodd" d="M21.747 48.052v-14.01c0-.41.31-.74.694-.74h10.12c.382 0 .693.33.693.74v14.054" clip-rule="evenodd"/><path stroke="#FF4A64" stroke-width="1.5" d="M21.747 48.052v-14.01c0-.41.31-.74.694-.74h10.12c.382 0 .693.33.693.74v14.054"/><path stroke="#FF4A64" stroke-linecap="round" stroke-width="1.5" d="m29.768 14.341 8.264 8.265"/></svg>