<svg xmlns="http://www.w3.org/2000/svg" width="55" height="55" fill="none"><path fill="#FFE5E9" d="M43.541 13.75 27.5 9.167 11.458 13.75v18.333l4.583 6.875L27.5 46.98l11.458-8.02 4.583-6.876V13.75Z"/><path fill="#FE4A64" d="M47.547 10.364 27.782 3.489a.858.858 0 0 0-.567 0L7.449 10.364a.858.858 0 0 0-.576.808V27.5c0 16.75 20.135 23.942 20.341 24.011a.858.858 0 0 0 .568 0c.206-.069 20.34-7.262 20.34-24.011V11.172a.86.86 0 0 0-.575-.808ZM46.404 27.5c0 14.472-16.525 21.373-18.906 22.284-2.38-.911-18.906-7.812-18.906-22.284V11.782l18.906-6.574 18.906 6.574V27.5Z"/><path fill="#FE4A64" d="m27.242 7.734-16.328 5.157a.86.86 0 0 0-.602.859V27.5c0 13.337 16.2 19.456 16.887 19.714a.86.86 0 0 0 .593 0c.696-.258 16.895-6.377 16.895-19.714V13.75a.859.859 0 0 0-.601-.86L27.758 7.735a.859.859 0 0 0-.516 0Zm15.726 6.643V27.5c0 11.172-13.294 17.093-15.468 17.978-2.175-.885-15.47-6.806-15.47-17.978V14.377L27.5 9.453l15.468 4.925Z"/><path fill="#FE4A64" d="M22.344 20.625v1.719h-2.578a.86.86 0 0 0-.86.86v10.312a.86.86 0 0 0 .86.859h15.468a.86.86 0 0 0 .86-.86V23.204a.86.86 0 0 0-.86-.86h-2.578v-1.718a5.156 5.156 0 0 0-10.312 0Zm12.031 12.031h-13.75v-8.593h13.75v8.593Zm-3.438-12.031v1.719h-6.875v-1.719a3.438 3.438 0 1 1 6.875 0Z"/><path fill="#FE4A64" d="M27.5 26.64a.86.86 0 0 0-.86.86v1.719a.86.86 0 0 0 1.72 0V27.5a.86.86 0 0 0-.86-.86Z"/></svg>